<svg width="302" height="302" viewBox="0 0 302 302" fill="none" xmlns="http://www.w3.org/2000/svg">
<circle cx="151" cy="151" r="100" fill="#212121"/>
<g filter="url(#filter0_f_421_12)">
<circle cx="151" cy="151" r="51" fill="url(#paint0_linear_421_12)"/>
</g>
<path d="M97.24 111.76C102.2 108.88 106.48 105.68 110.08 102.16C113.76 98.56 116.84 94.92 119.32 91.24L125.44 91.48C122.48 95.96 118.76 100.56 114.28 105.28C109.88 109.92 104.56 114.04 98.32 117.64L97.24 111.76ZM189.4 111.16C187.64 114.44 185.88 117.32 184.12 119.8C182.36 122.2 180.32 124.48 178 126.64C173.6 123.6 169.6 120 166 115.84C162.48 111.6 158.92 106.72 155.32 101.2H126.04C127.4 99.68 128.64 98.12 129.76 96.52C130.88 94.84 131.84 93.24 132.64 91.72L138.4 92.08C138.4 92.08 138.16 92.56 137.68 93.52C137.2 94.48 136.64 95.4 136 96.28H158.2L165.28 107.08H189.4V111.16ZM202.48 139.6C199.04 138.24 195.72 136.84 192.52 135.4C189.4 133.88 186.4 132.24 183.52 130.48C186.56 127.2 189.24 123.88 191.56 120.52C193.88 117.16 196.16 113.28 198.4 108.88V100.72H164.8V95.8H203.08V110.92C201.64 114.12 200 117.24 198.16 120.28C196.32 123.32 194.36 126.12 192.28 128.68C194.28 129.72 196.32 130.64 198.4 131.44C200.56 132.16 202.84 132.76 205.24 133.24L202.48 139.6ZM147.52 106C145.68 109.04 143.72 111.84 141.64 114.4C139.64 116.96 137.36 119.36 134.8 121.6C131.84 119.2 129.2 117.12 126.88 115.36C124.56 113.6 122.04 111.72 119.32 109.72C119.96 109.32 120.6 108.8 121.24 108.16C121.88 107.52 122.48 106.8 123.04 106H147.52ZM128.44 110.92C129.56 111.56 130.6 112.28 131.56 113.08C132.52 113.88 133.52 114.68 134.56 115.48C135.36 114.84 136 114.16 136.48 113.44C137.04 112.72 137.6 111.88 138.16 110.92H128.44ZM197.2 151.36C194.96 150.56 192.76 149.68 190.6 148.72C188.44 147.76 186.36 146.76 184.36 145.72V148.12H124.12V145.48C121.64 146.92 118.88 148.32 115.84 149.68C112.88 151.04 109.72 152.16 106.36 153.04L103.36 148C113.52 144.96 122.76 140.4 131.08 134.32C139.48 128.16 146.84 120.44 153.16 111.16C157.88 117.56 162.52 122.92 167.08 127.24C171.72 131.48 176.68 135.04 181.96 137.92C187.24 140.8 193.2 143.44 199.84 145.84L197.2 151.36ZM168.88 112C170 113.28 171.24 114.56 172.6 115.84C173.96 117.04 175.48 118.2 177.16 119.32C178.2 118.28 179.2 117.2 180.16 116.08C181.12 114.88 182 113.52 182.8 112H168.88ZM130.96 124.84C128.96 126.6 127.08 128.16 125.32 129.52C123.56 130.8 121.6 132 119.44 133.12C117.28 130.72 115.16 128.44 113.08 126.28C111.08 124.04 109.04 121.92 106.96 119.92C108.56 118.8 110.08 117.68 111.52 116.56C113.04 115.44 114.52 114.16 115.96 112.72C118.68 114.72 121.12 116.64 123.28 118.48C125.44 120.32 128 122.44 130.96 124.84ZM123.76 124.48C122.56 123.36 121.4 122.36 120.28 121.48C119.16 120.52 118 119.56 116.8 118.6C116.48 118.92 116.12 119.28 115.72 119.68C115.32 120 114.84 120.36 114.28 120.76C115.08 121.48 116.04 122.4 117.16 123.52C118.36 124.64 119.48 125.76 120.52 126.88C121.24 126.56 121.84 126.24 122.32 125.92C122.8 125.52 123.28 125.04 123.76 124.48ZM164.92 132.4C162.52 130.32 160.48 128.32 158.8 126.4C157.12 124.4 155.32 122.16 153.4 119.68C151.72 122.16 150 124.44 148.24 126.52C146.48 128.52 144.44 130.48 142.12 132.4H164.92ZM97.12 136C100.96 135.76 104.44 134.92 107.56 133.48C107 132.6 106.32 131.68 105.52 130.72C104.8 129.68 104.08 128.88 103.36 128.32C102.88 128.64 102.44 128.96 102.04 129.28C101.64 129.52 101.16 129.8 100.6 130.12L99.64 124.12L103.36 121.84C105.52 124.16 107.44 126.32 109.12 128.32C110.88 130.32 112.88 132.68 115.12 135.4C112.32 136.92 109.68 138.12 107.2 139C104.72 139.88 102.32 140.64 100 141.28L97.12 136ZM136.48 137.56C135.2 138.6 133.92 139.52 132.64 140.32C131.44 141.04 130 141.84 128.32 142.72H179.08C177.56 142 176.04 141.2 174.52 140.32C173.08 139.36 171.72 138.44 170.44 137.56H136.48ZM100.12 153.16H202.36V158.68H100.12V153.16ZM125.56 186.52C123.08 188.84 120.52 190.92 117.88 192.76C115.24 194.6 112.04 196.44 108.28 198.28L104.56 193.24C109.44 191.16 113.8 188.64 117.64 185.68C121.56 182.64 125.2 179.16 128.56 175.24L133.48 177.52C132.92 178.32 132.36 179 131.8 179.56C131.24 180.12 130.64 180.68 130 181.24H137.32C140.2 181.24 141.96 181 142.6 180.52C143.32 179.96 143.68 178.76 143.68 176.92V170.44H119.8L122.8 172.12C119.6 175.48 116.2 178.36 112.6 180.76C109 183.08 104.96 185.2 100.48 187.12L96.88 182.08C100.8 180.72 104.4 179.08 107.68 177.16C110.96 175.24 113.84 173 116.32 170.44H100.12V164.92H149.2V176.8C149.2 179.44 148.92 181.48 148.36 182.92C147.88 184.28 146.8 185.24 145.12 185.8C143.44 186.28 140.92 186.52 137.56 186.52H125.56ZM200.2 188.92C196.68 186.28 193.2 183.52 189.76 180.64C186.4 177.68 182.96 174.28 179.44 170.44H163.12V177.16C163.12 182.6 162.44 186.92 161.08 190.12C159.72 193.32 157.2 195.6 153.52 196.96C149.92 198.32 144.68 199 137.8 199H129.76L127.72 193.24H137.8C143.16 193.24 147.24 192.76 150.04 191.8C152.92 190.92 154.88 189.28 155.92 186.88C157.04 184.48 157.6 181.12 157.6 176.8V164.92H202.36V170.44H187.24C189.88 173 192.52 175.4 195.16 177.64C197.88 179.88 201.08 182.04 204.76 184.12L200.2 188.92ZM190.72 198.16C186.8 194.88 183 191.4 179.32 187.72C175.64 184.04 172.2 180.36 169 176.68L173.68 173.56C176.96 177.48 180.44 181.08 184.12 184.36C187.8 187.56 191.56 190.64 195.4 193.6L190.72 198.16Z" fill="#013FF9"/>
<path d="M97.24 111.76C102.2 108.88 106.48 105.68 110.08 102.16C113.76 98.56 116.84 94.92 119.32 91.24L125.44 91.48C122.48 95.96 118.76 100.56 114.28 105.28C109.88 109.92 104.56 114.04 98.32 117.64L97.24 111.76ZM189.4 111.16C187.64 114.44 185.88 117.32 184.12 119.8C182.36 122.2 180.32 124.48 178 126.64C173.6 123.6 169.6 120 166 115.84C162.48 111.6 158.92 106.72 155.32 101.2H126.04C127.4 99.68 128.64 98.12 129.76 96.52C130.88 94.84 131.84 93.24 132.64 91.72L138.4 92.08C138.4 92.08 138.16 92.56 137.68 93.52C137.2 94.48 136.64 95.4 136 96.28H158.2L165.28 107.08H189.4V111.16ZM202.48 139.6C199.04 138.24 195.72 136.84 192.52 135.4C189.4 133.88 186.4 132.24 183.52 130.48C186.56 127.2 189.24 123.88 191.56 120.52C193.88 117.16 196.16 113.28 198.4 108.88V100.72H164.8V95.8H203.08V110.92C201.64 114.12 200 117.24 198.16 120.28C196.32 123.32 194.36 126.12 192.28 128.68C194.28 129.72 196.32 130.64 198.4 131.44C200.56 132.16 202.84 132.76 205.24 133.24L202.48 139.6ZM147.52 106C145.68 109.04 143.72 111.84 141.64 114.4C139.64 116.96 137.36 119.36 134.8 121.6C131.84 119.2 129.2 117.12 126.88 115.36C124.56 113.6 122.04 111.72 119.32 109.72C119.96 109.32 120.6 108.8 121.24 108.16C121.88 107.52 122.48 106.8 123.04 106H147.52ZM128.44 110.92C129.56 111.56 130.6 112.28 131.56 113.08C132.52 113.88 133.52 114.68 134.56 115.48C135.36 114.84 136 114.16 136.48 113.44C137.04 112.72 137.6 111.88 138.16 110.92H128.44ZM197.2 151.36C194.96 150.56 192.76 149.68 190.6 148.72C188.44 147.76 186.36 146.76 184.36 145.72V148.12H124.12V145.48C121.64 146.92 118.88 148.32 115.84 149.68C112.88 151.04 109.72 152.16 106.36 153.04L103.36 148C113.52 144.96 122.76 140.4 131.08 134.32C139.48 128.16 146.84 120.44 153.16 111.16C157.88 117.56 162.52 122.92 167.08 127.24C171.72 131.48 176.68 135.04 181.96 137.92C187.24 140.8 193.2 143.44 199.84 145.84L197.2 151.36ZM168.88 112C170 113.28 171.24 114.56 172.6 115.84C173.96 117.04 175.48 118.2 177.16 119.32C178.2 118.28 179.2 117.2 180.16 116.08C181.12 114.88 182 113.52 182.8 112H168.88ZM130.96 124.84C128.96 126.6 127.08 128.16 125.32 129.52C123.56 130.8 121.6 132 119.44 133.12C117.28 130.72 115.16 128.44 113.08 126.28C111.08 124.04 109.04 121.92 106.96 119.92C108.56 118.8 110.08 117.68 111.52 116.56C113.04 115.44 114.52 114.16 115.96 112.72C118.68 114.72 121.12 116.64 123.28 118.48C125.44 120.32 128 122.44 130.96 124.84ZM123.76 124.48C122.56 123.36 121.4 122.36 120.28 121.48C119.16 120.52 118 119.56 116.8 118.6C116.48 118.92 116.12 119.28 115.72 119.68C115.32 120 114.84 120.36 114.28 120.76C115.08 121.48 116.04 122.4 117.16 123.52C118.36 124.64 119.48 125.76 120.52 126.88C121.24 126.56 121.84 126.24 122.32 125.92C122.8 125.52 123.28 125.04 123.76 124.48ZM164.92 132.4C162.52 130.32 160.48 128.32 158.8 126.4C157.12 124.4 155.32 122.16 153.4 119.68C151.72 122.16 150 124.44 148.24 126.52C146.48 128.52 144.44 130.48 142.12 132.4H164.92ZM97.12 136C100.96 135.76 104.44 134.92 107.56 133.48C107 132.6 106.32 131.68 105.52 130.72C104.8 129.68 104.08 128.88 103.36 128.32C102.88 128.64 102.44 128.96 102.04 129.28C101.64 129.52 101.16 129.8 100.6 130.12L99.64 124.12L103.36 121.84C105.52 124.16 107.44 126.32 109.12 128.32C110.88 130.32 112.88 132.68 115.12 135.4C112.32 136.92 109.68 138.12 107.2 139C104.72 139.88 102.32 140.64 100 141.28L97.12 136ZM136.48 137.56C135.2 138.6 133.92 139.52 132.64 140.32C131.44 141.04 130 141.84 128.32 142.72H179.08C177.56 142 176.04 141.2 174.52 140.32C173.08 139.36 171.72 138.44 170.44 137.56H136.48ZM100.12 153.16H202.36V158.68H100.12V153.16ZM125.56 186.52C123.08 188.84 120.52 190.92 117.88 192.76C115.24 194.6 112.04 196.44 108.28 198.28L104.56 193.24C109.44 191.16 113.8 188.64 117.64 185.68C121.56 182.64 125.2 179.16 128.56 175.24L133.48 177.52C132.92 178.32 132.36 179 131.8 179.56C131.24 180.12 130.64 180.68 130 181.24H137.32C140.2 181.24 141.96 181 142.6 180.52C143.32 179.96 143.68 178.76 143.68 176.92V170.44H119.8L122.8 172.12C119.6 175.48 116.2 178.36 112.6 180.76C109 183.08 104.96 185.2 100.48 187.12L96.88 182.08C100.8 180.72 104.4 179.08 107.68 177.16C110.96 175.24 113.84 173 116.32 170.44H100.12V164.92H149.2V176.8C149.2 179.44 148.92 181.48 148.36 182.92C147.88 184.28 146.8 185.24 145.12 185.8C143.44 186.28 140.92 186.52 137.56 186.52H125.56ZM200.2 188.92C196.68 186.28 193.2 183.52 189.76 180.64C186.4 177.68 182.96 174.28 179.44 170.44H163.12V177.16C163.12 182.6 162.44 186.92 161.08 190.12C159.72 193.32 157.2 195.6 153.52 196.96C149.92 198.32 144.68 199 137.8 199H129.76L127.72 193.24H137.8C143.16 193.24 147.24 192.76 150.04 191.8C152.92 190.92 154.88 189.28 155.92 186.88C157.04 184.48 157.6 181.12 157.6 176.8V164.92H202.36V170.44H187.24C189.88 173 192.52 175.4 195.16 177.64C197.88 179.88 201.08 182.04 204.76 184.12L200.2 188.92ZM190.72 198.16C186.8 194.88 183 191.4 179.32 187.72C175.64 184.04 172.2 180.36 169 176.68L173.68 173.56C176.96 177.48 180.44 181.08 184.12 184.36C187.8 187.56 191.56 190.64 195.4 193.6L190.72 198.16Z" fill="url(#paint1_linear_421_12)"/>
<defs>
<filter id="filter0_f_421_12" x="0" y="0" width="302" height="302" filterUnits="userSpaceOnUse" color-interpolation-filters="sRGB">
<feFlood flood-opacity="0" result="BackgroundImageFix"/>
<feBlend mode="normal" in="SourceGraphic" in2="BackgroundImageFix" result="shape"/>
<feGaussianBlur stdDeviation="50" result="effect1_foregroundBlur_421_12"/>
</filter>
<linearGradient id="paint0_linear_421_12" x1="151" y1="202" x2="151" y2="100" gradientUnits="userSpaceOnUse">
<stop stop-color="#013FF9"/>
<stop offset="0.5" stop-color="#FF426C"/>
<stop offset="1" stop-color="#FFB100"/>
</linearGradient>
<linearGradient id="paint1_linear_421_12" x1="97.5455" y1="89.8491" x2="201.006" y2="208.811" gradientUnits="userSpaceOnUse">
<stop stop-color="#FFB100"/>
<stop offset="0.5" stop-color="#FF426C"/>
<stop offset="1" stop-color="#013FF9"/>
</linearGradient>
</defs>
</svg>
